<?xml version="1.0" encoding="UTF-8"?>
<svg width="419px" height="95px" viewBox="0 0 419 95" version="1.1" xmlns="http://www.w3.org/2000/svg" xmlns:xlink="http://www.w3.org/1999/xlink">
    <!-- Generator: Sketch 51.2 (57519) - http://www.bohemiancoding.com/sketch -->
    <title>tm-bw-light-inline</title>
    <desc>Created with Sketch.</desc>
    <defs></defs>
    <g id="Page-1" stroke="none" stroke-width="1" fill="none" fill-rule="evenodd">
        <g id="solidity-cheatsheet" transform="translate(-219.000000, -44.000000)" fill="#F56B23" fill-rule="nonzero">
            <g id="tm-bw-light-inline" transform="translate(219.000000, 44.000000)">
                <g id="Group">
                    <ellipse id="Oval" cx="42.1240854" cy="14.7909722" rx="1.66141456" ry="1.65326389"></ellipse>
                    <ellipse id="Oval" cx="42.5662896" cy="10.0436111" rx="1.66141456" ry="1.65326389"></ellipse>
                    <path d="M50.9549082,30.3472222 C47.9403623,31.6666667 44.9655949,31.6666667 42.0683956,30.3472222 C42.0683956,34.9652778 50.9549082,34.9652778 50.9549082,30.3472222 Z" id="Shape"></path>
                    <path d="M35.9637247,30.3472222 C33.0665253,31.6666667 30.0917579,31.6666667 27.077212,30.3472222 C27.077212,34.9652778 35.9637247,34.9652778 35.9637247,30.3472222 Z" id="Shape"></path>
                    <path d="M39.0545127,91.0416667 C43.8451677,91.0416667 43.1616408,92.1163542 51.4044051,93.8593403 C74.2776946,98.1653472 82.4873101,74.3295833 74.5727184,64.9219444 C72.8463323,62.8702083 71.0801677,61.6299306 69.3557706,60.9985764 C69.213894,59.8796875 67.9210934,50.3975 64.3204778,45.8249653 C59.6465063,41.1646875 55.5354003,39.9540972 55.2682215,39.8788889 C55.989538,38.4413542 56.6545016,37.2136111 57.0131709,36.4582292 C60.0727991,36.5228819 65.8579161,28.6088542 58.5917136,22.7868056 C58.5917136,4.8925 43.8451677,0.64125 38.9000396,0.626736111 C34.1093845,0.64125 19.2713481,4.89184028 19.2713481,22.7861458 C12.0051456,28.6081944 17.8406487,36.5209028 20.9009399,36.45625 C21.2596092,37.2109722 21.9305396,38.4373958 22.652519,39.8749306 C22.3853402,39.9501389 18.2768861,41.1567708 13.6035775,45.8177083 C10.002962,50.3909028 8.71215032,59.8658333 8.57027373,60.9847222 C6.84587658,61.6160764 5.080375,62.8425 3.3546519,64.8942361 C-4.56060285,74.301875 3.66426108,98.1660069 26.5368877,93.8593403 C34.7783259,92.1163542 34.0576725,91.0416667 38.9000396,91.0416667 L39.0545127,91.0416667 Z M60.6953323,47.868125 C62.8539778,50.7847569 64.1428006,55.5202431 64.6353908,60.6020833 C64.3178259,60.6614583 64.0102057,60.7366667 63.7032484,60.8257292 C62.5894509,59.8935417 60.2856139,58.1076736 58.4299478,57.6142014 C59.6471693,55.4456944 60.02175,54.0708333 60.02175,54.0708333 C59.3773386,55.2748264 58.6666297,56.4194444 57.9028829,57.5093056 C57.8949272,57.5079861 57.8869715,57.5066667 57.8790158,57.5060069 C55.3033592,57.1985764 50.8640807,59.4079861 49.6892896,62.58125 C49.2881899,63.6651736 49.3239905,64.8764236 49.6223291,66.0995486 C40.6993528,73.07875 30.4776092,75.9947222 28.2626108,76.5693403 C26.8557785,75.3165278 25.9110396,74.0492014 25.1114921,72.7257986 C50.5816535,66.3251736 56.6591424,49.9739583 57.8233259,45.7497569 C58.7660759,46.3026042 59.7525823,46.9979514 60.6953323,47.868125 Z M61.0241677,62.0026736 C59.2062911,63.0753819 57.7503987,64.5195139 56.8765981,65.7334028 C55.8436835,67.1689583 55.0295506,67.9870139 54.1206123,69.3163542 C53.1632769,68.1453472 51.5674968,65.9267014 52.1628481,63.7595139 C52.7436139,61.6451042 55.5360633,59.8473611 57.3141614,59.9146528 C58.816462,59.9727083 60.2160016,61.1668056 61.0241677,62.0026736 Z M23.4971487,69.7781597 C22.8235665,68.5075347 22.0830237,67.1696181 21.0501092,65.7340625 C20.1763085,64.5201736 18.7204161,63.0760417 16.9025396,62.0033333 C17.7107057,61.1674653 19.1102453,59.9727083 20.6118829,59.9159722 C22.390644,59.8480208 25.1824304,61.6464236 25.7631962,63.7608333 C26.3585475,65.9267014 24.4538212,68.6071528 23.4971487,69.7781597 Z M21.761481,33.3595139 C18.9451646,32.3382639 17.4786646,28.0863542 21.1097769,25.1136458 C22.2646788,25.8677083 23.2545,27.2438889 23.2545,27.2438889 C21.1681187,16.2865625 27.3079272,4.93604167 38.9630222,4.92680556 C50.6174541,4.93604167 56.7579256,16.2859028 54.6715443,27.2438889 C54.6715443,27.2438889 55.6613655,25.8677083 56.8162674,25.1136458 C60.4473797,28.0863542 58.9808797,32.3382639 56.1645633,33.3595139 C55.4094351,32.7189236 54.9997168,32.3310069 54.3983987,31.5373611 C53.5623877,38.1299653 48.9646582,47.9505903 38.9630222,47.9598264 C28.9613861,47.9505903 24.3636566,38.1299653 23.5276456,31.5373611 C22.9269905,32.3303472 22.5166092,32.7182639 21.761481,33.3595139 Z M17.2114858,47.868125 C20.5130997,44.8182292 24.3139335,43.9144097 24.929837,43.7851042 C27.6931155,47.7658681 32.0999082,51.7143056 38.9000396,51.7248611 C45.854644,51.7136458 50.1699462,47.7658681 52.9332247,43.7851042 C53.2620601,43.854375 54.5144193,44.1453125 56.1135142,44.8670486 C50.2501661,61.7110764 33.2541472,67.1485069 27.3424019,68.6130903 C28.2851519,66.5098958 28.8506693,64.2404514 28.2360918,62.58125 C27.6235032,60.9273264 26.1238544,59.5366319 24.4637658,58.6262153 C24.4412247,57.7019444 24.4524953,54.93375 25.2991139,52.9948264 C23.5375902,54.9225347 22.6816899,56.6978472 22.3409209,57.7501042 C21.5095506,57.5172222 20.713981,57.4261806 20.0443766,57.5060069 C18.1184351,57.73625 15.4446582,59.7992014 14.2174921,60.8263889 C13.9105348,60.7373264 13.5982737,60.6621181 13.2807089,60.6027431 C13.773962,55.5202431 15.0528402,50.7847569 17.2114858,47.868125 Z M55.8808101,89.7453125 C47.1540744,89.7453125 45.0816155,86.4236111 39.0545127,86.4236111 L38.9000396,86.4236111 C32.7953687,86.4236111 30.7865554,89.7453125 22.0591566,89.7453125 C6.71328165,89.6608681 0.427618671,73.4284028 7.99017089,66.5422222 C11.8539873,63.4665972 16.7222104,65.2920486 19.6585253,69.8289583 C22.5948402,74.3658681 26.999644,81.7633333 36.427144,81.3279167 C33.9668449,80.3053472 32.0594668,79.3019097 30.5399288,78.3057292 C39.3913038,75.1205903 45.6524367,71.2084375 50.0559146,67.4658333 C50.647288,68.9924306 51.5529114,70.4688889 52.4326788,71.6695833 C50.6976741,74.1679514 48.6881978,75.2954167 43.3306994,77.8069792 C50.7487231,77.1921181 53.4278038,74.7306944 57.8074146,69.8098264 C61.4027263,65.7696875 66.0793497,63.4672569 69.9431661,66.5428819 C77.5057184,73.4284028 71.2266851,89.6608681 55.8808101,89.7453125 Z" id="Shape"></path>
                    <ellipse id="Oval" cx="35.3604177" cy="10.0436111" rx="1.66141456" ry="1.65326389"></ellipse>
                    <ellipse id="Oval" cx="36.2580854" cy="19.6913889" rx="1.66141456" ry="1.65326389"></ellipse>
                    <ellipse id="Oval" cx="41.6679589" cy="19.6913889" rx="1.66141456" ry="1.65326389"></ellipse>
                    <ellipse id="Oval" cx="35.8019589" cy="14.7909722" rx="1.66141456" ry="1.65326389"></ellipse>
                </g>
                <g id="Group" transform="translate(98.120253, 31.006944)">
                    <polygon id="Shape" points="19.0068212 9.17607639 19.0068212 42.2202431 9.48385285 42.2202431 9.48385285 9.17607639 0.517783228 9.17607639 0.517783228 1.17628472 27.9735538 1.17628472 27.9735538 9.17607639"></polygon>
                    <path d="M66.0283006,6.22184028 C69.9239399,9.97565972 72.4591551,15.3906597 72.4591551,21.7286111 C72.4591551,27.205625 70.4801756,32.8053472 66.0283006,37.1126736 C62.194318,40.8044792 56.9992484,43.1431944 50.0738149,43.1431944 C42.344193,43.1431944 37.0881297,40.06625 33.9960158,37.1126736 C30.038057,33.4208681 27.5651614,27.8825 27.5651614,21.8519792 C27.5651614,15.9441667 30.2236899,9.97565972 33.9343592,6.28385417 C36.7175269,3.515 41.8496139,0.253333333 50.0744778,0.253333333 C56.5053323,0.253333333 61.8847089,2.22260417 66.0283006,6.22184028 Z M40.983769,12.4984375 C39.1904225,14.2216319 37.3354193,17.2365625 37.3354193,21.7899653 C37.3354193,25.5437847 38.5725301,28.5587153 41.1077453,31.0201389 C43.7662737,33.5429167 46.7344114,34.4051736 49.9505016,34.4051736 C54.15575,34.4051736 57.1238877,32.8667014 59.1022041,30.8974306 C60.7099177,29.3589583 62.6888972,26.4667361 62.6888972,21.7286111 C62.6888972,17.4832986 60.9572073,14.3443403 59.1022041,12.4984375 C57.061568,10.5298264 53.7844842,8.99069444 50.0121582,8.99069444 C46.4254652,8.99135417 43.210038,10.28375 40.983769,12.4984375 Z" id="Shape"></path>
                    <path d="M91.7391218,1.17628472 C95.3258149,1.17628472 99.2837737,1.6684375 102.560858,4.56131944 C106.085894,7.63760417 106.57981,11.6995139 106.57981,14.5297222 C106.57981,19.6979861 104.601494,22.5908681 103.055437,24.1906944 C99.7776899,27.5130556 95.4491282,27.8211458 92.5426472,27.8211458 L86.7296851,27.8211458 L86.7296851,42.2202431 L77.2067168,42.2202431 L77.2067168,1.17628472 L91.7391218,1.17628472 Z M86.7310111,20.0674306 L90.1320712,20.0674306 C91.4308386,20.0674306 93.7187642,20.0060764 95.2648212,18.5289583 C96.1306661,17.6673611 96.8108782,16.2522569 96.8108782,14.4677083 C96.8108782,12.7445139 96.1929858,11.3294097 95.2648212,10.4678125 C93.8427405,9.1140625 91.8021044,8.92934028 89.9471013,8.92934028 L86.7316741,8.92934028 L86.7316741,20.0674306 L86.7310111,20.0674306 Z" id="Shape"></path>
                    <polygon id="Shape" points="106.598373 42.2202431 113.214861 1.17628472 121.130116 1.17628472 131.394953 25.7285069 141.660453 1.17628472 149.575707 1.17628472 156.192858 42.2202431 146.669889 42.2202431 143.392142 17.729375 133.064986 42.2202431 129.726245 42.2202431 119.399089 17.729375 116.121342 42.2202431"></polygon>
                    <path d="M196.626358,6.22184028 C200.521997,9.97565972 203.057212,15.3906597 203.057212,21.7286111 C203.057212,27.205625 201.078896,32.8053472 196.626358,37.1126736 C192.792375,40.8044792 187.597305,43.1431944 180.671872,43.1431944 C172.94225,43.1431944 167.686187,40.06625 164.594073,37.1126736 C160.636114,33.4208681 158.163218,27.8825 158.163218,21.8519792 C158.163218,15.9441667 160.821747,9.97565972 164.532416,6.28385417 C167.315584,3.515 172.447671,0.253333333 180.672535,0.253333333 C187.103389,0.253333333 192.482766,2.22260417 196.626358,6.22184028 Z M171.581826,12.4984375 C169.788479,14.2216319 167.933476,17.2365625 167.933476,21.7899653 C167.933476,25.5437847 169.170587,28.5587153 171.705802,31.0201389 C174.364331,33.5429167 177.333131,34.4051736 180.548559,34.4051736 C184.753807,34.4051736 187.721945,32.8667014 189.700261,30.8974306 C191.307975,29.3589583 193.286954,26.4667361 193.286954,21.7286111 C193.286954,17.4832986 191.555264,14.3443403 189.700261,12.4984375 C187.659625,10.5298264 184.382541,8.99069444 180.610215,8.99069444 C177.023522,8.99135417 173.808095,10.28375 171.581826,12.4984375 Z" id="Shape"></path>
                    <polygon id="Shape" points="207.805437 42.2202431 207.805437 1.17628472 216.091294 1.17628472 238.476634 27.6364236 238.476634 1.17628472 247.999603 1.17628472 247.999603 42.2202431 239.713745 42.2202431 217.328405 15.6373958 217.328405 42.2202431"></polygon>
                    <polygon id="Shape" points="264.491098 18.2828819 278.589918 1.17628472 290.215179 1.17628472 273.518824 20.6209375 291.513946 42.2195833 279.269467 42.2195833 264.490435 24.0053125 264.490435 42.2195833 254.967467 42.2195833 254.967467 1.175625 264.490435 1.175625 264.490435 18.2828819"></polygon>
                    <path d="M314.585465,11.2067014 C311.494014,8.43784722 308.834823,8.253125 307.660032,8.253125 C306.361927,8.253125 304.753551,8.43784722 303.640416,9.66822917 C303.022524,10.2830903 302.589601,11.2067014 302.589601,12.2523611 C302.589601,13.2373264 302.898547,13.9755556 303.517103,14.5297222 C304.506924,15.4526736 305.928342,15.8214583 308.710847,16.8677778 L311.80296,18.0368056 C313.596307,18.7136806 315.822576,19.6366319 317.43029,21.1751042 C319.842191,23.4518056 320.460084,26.4053819 320.460084,28.8054514 C320.460084,33.0514236 318.975684,36.7438889 316.811734,38.9585764 C313.162722,42.77375 307.845002,43.1431944 305.124153,43.1431944 C302.156016,43.1431944 299.558481,42.7123958 296.961609,41.42 C294.859316,40.3743403 292.447415,38.4664236 290.901358,36.9279514 L295.848475,30.1592014 C296.89929,31.2055208 298.569323,32.620625 299.682457,33.2975 C301.290171,34.2818056 302.960204,34.7739583 304.876864,34.7739583 C306.113975,34.7739583 307.845002,34.5278819 309.205426,33.3588542 C310.009614,32.6819792 310.689826,31.5743056 310.689826,30.0364931 C310.689826,28.6820833 310.132927,27.8211458 309.267745,27.0822569 C308.154611,26.1593056 305.619396,25.2363542 304.444604,24.8055556 L301.043544,23.6365278 C299.126884,22.9596528 296.900616,22.0980556 295.292902,20.3748611 C293.12829,18.0981597 292.819343,15.2065972 292.819343,13.2366667 C292.819343,9.60621528 293.932478,6.52927083 296.405373,4.00649306 C299.311854,1.05291667 302.774571,0.252673611 306.609217,0.252673611 C309.453378,0.252673611 314.029892,0.744826389 318.853033,4.31392361 L314.585465,11.2067014 Z" id="Shape"></path>
                </g>
            </g>
        </g>
    </g>
</svg>